<svg width="221" height="32" viewBox="0 0 221 32" fill="none" xmlns="http://www.w3.org/2000/svg">
<path d="M60.1257 15.6386C60.1257 20.5084 56.7514 23.6673 52.1807 23.6673C50.4697 23.6673 48.9261 23.1647 47.7296 22.1238C47.5142 21.9323 47.1672 22.0879 47.1672 22.375V28.8124C47.1672 29.0038 47.0117 29.1474 46.8322 29.1474H43.8409C43.6494 29.1474 43.5059 28.9918 43.5059 28.8124V8.1483C43.5059 7.95685 43.6614 7.81327 43.8409 7.81327H46.6527C46.8442 7.81327 46.9878 7.96882 46.9878 8.1483V9.0098C46.9878 9.29697 47.3348 9.46448 47.5501 9.26107C48.7467 8.17223 50.338 7.63379 52.1807 7.63379C56.7514 7.63379 60.1257 10.8046 60.1257 15.6386ZM56.4044 15.6386C56.4044 12.6473 54.4062 10.7448 51.7739 10.7448C49.1415 10.7448 47.1074 12.6473 47.1074 15.6386C47.1074 18.6299 49.1295 20.5324 51.7739 20.5324C54.4062 20.5324 56.4044 18.6299 56.4044 15.6386Z" fill="white"></path>
<path d="M72.0192 7.98118V10.7332C72.0192 10.9366 71.8397 11.0922 71.6363 11.0682C71.4688 11.0443 71.3252 11.0443 71.1696 11.0443C68.3817 11.0443 66.6228 12.6835 66.6228 15.8783V23.1292C66.6228 23.3207 66.4673 23.4643 66.2878 23.4643H63.2965C63.105 23.4643 62.9614 23.3087 62.9614 23.1292V8.14869C62.9614 7.95725 63.117 7.81366 63.2965 7.81366H66.1083C66.2997 7.81366 66.4433 7.96921 66.4433 8.14869V9.12985C66.4433 9.44094 66.8143 9.58453 67.0296 9.36915C68.0826 8.28031 69.65 7.70598 71.6602 7.64615C71.8516 7.63419 72.0192 7.78974 72.0192 7.98118Z" fill="white"></path>
<path d="M73 15.6386C73 10.9482 76.5178 7.63379 81.3278 7.63379C86.1977 7.63379 89.6796 10.9482 89.6796 15.6386C89.6796 20.329 86.1858 23.6673 81.3278 23.6673C76.5178 23.6673 73 20.329 73 15.6386ZM85.9943 15.6386C85.9943 12.6473 83.9961 10.7448 81.3278 10.7448C78.6955 10.7448 76.6973 12.6473 76.6973 15.6386C76.6973 18.6299 78.6955 20.5324 81.3278 20.5324C83.9961 20.5324 85.9943 18.6299 85.9943 15.6386Z" fill="white"></path>
<path d="M101.705 23.3325L98.0674 18.4147C97.9358 18.2353 97.6606 18.2353 97.517 18.4147L93.8437 23.3325C93.7839 23.4162 93.6762 23.4641 93.5685 23.4641H90.3857C90.0986 23.4641 89.943 23.141 90.1225 22.9137L95.6385 15.7225C95.7342 15.6029 95.7342 15.4354 95.6385 15.3157L90.3738 8.35191C90.2062 8.12457 90.3618 7.81348 90.649 7.81348H93.8676C93.9753 7.81348 94.071 7.86134 94.1428 7.9451L97.6128 12.5757C97.7444 12.7551 98.0196 12.7551 98.1512 12.5757L101.621 7.9451C101.681 7.86134 101.789 7.81348 101.896 7.81348H104.995C105.271 7.81348 105.438 8.13654 105.259 8.36388L99.9699 15.2679C99.8742 15.3875 99.8742 15.555 99.9699 15.6747L105.522 22.9256C105.689 23.153 105.534 23.4761 105.247 23.4761H101.968C101.872 23.4641 101.777 23.4162 101.705 23.3325Z" fill="white"></path>
<path d="M123.279 7.81348C123.518 7.81348 123.686 8.06475 123.59 8.29209L116.47 24.7324C115.035 28.2741 113.036 29.363 110.428 29.363C108.98 29.363 107.461 28.9083 106.455 28.1066C106.324 27.9989 106.288 27.8195 106.372 27.6759L107.508 25.5939C107.604 25.4144 107.843 25.3546 108.011 25.4862C108.681 26.0007 109.543 26.3118 110.404 26.3118C111.696 26.3118 112.462 25.7016 113.156 24.1461L113.359 23.6675C113.395 23.5837 113.395 23.488 113.359 23.4043L106.791 8.30406C106.695 8.07672 106.862 7.82545 107.102 7.82545H110.177C110.308 7.82545 110.44 7.9092 110.488 8.02885L115.011 18.666C115.13 18.9412 115.513 18.9412 115.633 18.666L120.192 8.02885C120.239 7.9092 120.371 7.82545 120.503 7.82545H123.279V7.81348Z" fill="white"></path>
<path d="M150.942 14.179V23.1291C150.942 23.3205 150.787 23.4641 150.607 23.4641H149.817C149.626 23.4641 149.482 23.3086 149.482 23.1291V14.2987C149.482 10.8407 147.699 9.022 144.708 9.022C141.25 9.022 139.108 11.3433 139.108 14.9687V23.1291C139.108 23.3205 138.953 23.4641 138.773 23.4641H137.984C137.792 23.4641 137.649 23.3086 137.649 23.1291V14.2987C137.649 10.8407 135.866 9.022 132.874 9.022C129.416 9.022 127.275 11.3433 127.275 14.9687V23.1291C127.275 23.3205 127.119 23.4641 126.94 23.4641H126.15C125.959 23.4641 125.815 23.3086 125.815 23.1291V8.14853C125.815 7.95708 125.97 7.8135 126.15 7.8135H126.88C127.071 7.8135 127.215 7.96905 127.215 8.14853V9.85957C127.215 10.1826 127.634 10.3262 127.825 10.063C128.95 8.55535 130.769 7.69385 133.078 7.69385C135.567 7.69385 137.469 8.72286 138.414 10.7211C138.534 10.9604 138.869 10.9843 139.013 10.757C140.125 8.89038 142.195 7.69385 144.876 7.69385C148.537 7.69385 150.942 9.89546 150.942 14.179Z" fill="white"></path>
<path d="M166.808 13.6886V23.1172C166.808 23.3087 166.653 23.4523 166.473 23.4523H165.743C165.552 23.4523 165.408 23.2967 165.408 23.1172V21.813C165.408 21.49 165.013 21.3583 164.81 21.5976C163.757 22.842 162.094 23.5719 159.904 23.5719C156.47 23.5719 154.388 21.813 154.388 19.2046C154.388 16.8833 155.848 14.921 160.108 14.921H165.013C165.205 14.921 165.348 14.7655 165.348 14.586V13.4612C165.348 10.9605 163.542 9.09391 160.802 9.09391C158.839 9.09391 157.056 9.77593 155.8 10.793C155.645 10.9126 155.417 10.8887 155.31 10.7212L154.963 10.2306C154.867 10.087 154.891 9.88362 155.022 9.77593C156.542 8.54351 158.684 7.80165 160.957 7.81362C164.2 7.82558 166.808 10.458 166.808 13.6886ZM165.348 18.8217V16.4286C165.348 16.2372 165.193 16.0936 165.013 16.0936H160.132C156.961 16.0936 155.848 17.4098 155.848 19.1687C155.848 21.1669 157.403 22.3993 160.096 22.3993C162.62 22.3993 164.391 21.2147 165.289 19.0969C165.324 19.0012 165.348 18.9054 165.348 18.8217Z" fill="white"></path>
<path d="M178.726 8.04124V8.78309C178.726 8.97453 178.57 9.11812 178.379 9.11812C174.981 9.11812 172.959 11.3796 172.959 15.1606V23.1534C172.959 23.3329 172.815 23.4884 172.624 23.4884H171.822C171.642 23.4884 171.487 23.3449 171.487 23.1534V8.14892C171.487 7.96944 171.63 7.8139 171.822 7.8139H172.564C172.743 7.8139 172.899 7.95748 172.899 8.14892V9.87193C172.899 10.195 173.318 10.3266 173.509 10.0634C174.538 8.6036 176.201 7.78997 178.391 7.70621C178.57 7.69425 178.726 7.8498 178.726 8.04124Z" fill="white"></path>
<path d="M186.826 15.1841L183.213 18.4746C183.141 18.5344 183.105 18.6301 183.105 18.7258V23.1291C183.105 23.3205 182.95 23.4641 182.77 23.4641H181.981C181.789 23.4641 181.646 23.3085 181.646 23.1291V2.05817C181.646 1.86673 181.801 1.72314 181.981 1.72314H182.77C182.962 1.72314 183.105 1.87869 183.105 2.05817V15.9858C183.105 16.2849 183.452 16.4405 183.668 16.237L192.797 7.9092C192.857 7.84937 192.941 7.82545 193.025 7.82545H193.91C194.221 7.82545 194.365 8.19636 194.137 8.41174L188.394 13.7961C188.262 13.9158 188.25 14.1192 188.358 14.2508L194.963 22.9256C195.142 23.153 194.987 23.476 194.7 23.476H193.742C193.635 23.476 193.539 23.4282 193.479 23.3444L187.293 15.22C187.197 15.0644 186.97 15.0525 186.826 15.1841Z" fill="white"></path>
<path d="M203.47 23.5002C198.791 23.5002 195.525 20.2816 195.525 15.6749C195.525 11.1401 198.624 7.84961 202.907 7.84961C207.167 7.84961 210.266 11.1161 210.266 15.6151C210.266 15.639 210.266 15.6749 210.266 15.7108C210.254 15.8424 210.146 15.9501 210.003 15.9501H197.284C197.164 15.9501 197.044 15.998 196.961 16.0937C196.877 16.1775 196.841 16.2971 196.853 16.4168C197.164 19.9585 199.844 22.3276 203.518 22.3276C205.444 22.3276 207.155 21.6456 208.316 20.4132C208.364 20.3533 208.435 20.3294 208.507 20.3294C208.579 20.3294 208.651 20.3653 208.699 20.4132L209.106 20.8798C209.189 20.9755 209.189 21.1311 209.106 21.2268C207.753 22.6866 205.755 23.5002 203.47 23.5002ZM202.896 8.98631C199.689 8.98631 197.272 11.1879 196.877 14.4664C196.865 14.5861 196.901 14.7057 196.985 14.8015C197.068 14.8972 197.188 14.945 197.308 14.945H208.495C208.615 14.945 208.735 14.8972 208.818 14.8015C208.902 14.7057 208.938 14.5861 208.926 14.4664C208.555 11.2358 206.078 8.98631 202.896 8.98631Z" fill="white"></path>
<path d="M220.951 22.2557C221.035 22.3993 221.011 22.5907 220.879 22.6984C220.113 23.2967 219.001 23.5838 217.96 23.5838C215.267 23.5838 213.796 22.0044 213.796 19.4199V9.41694C213.796 9.22549 213.64 9.08191 213.461 9.08191H211.319C211.127 9.08191 210.984 8.92635 210.984 8.74687V8.16058C210.984 7.96914 211.139 7.82555 211.319 7.82555H213.461C213.652 7.82555 213.796 7.67 213.796 7.49052V5.18122C213.796 4.98977 213.951 4.84619 214.131 4.84619H214.92C215.112 4.84619 215.255 5.00174 215.255 5.18122V7.49052C215.255 7.68196 215.411 7.82555 215.591 7.82555H219.778C219.97 7.82555 220.113 7.9811 220.113 8.16058V8.74687C220.113 8.93832 219.958 9.08191 219.778 9.08191H215.591C215.399 9.08191 215.255 9.23746 215.255 9.41694V19.2763C215.255 21.2386 216.225 22.3275 218.103 22.3275C218.881 22.3275 219.611 22.1121 220.197 21.7053C220.353 21.5976 220.58 21.6455 220.676 21.813L220.951 22.2557Z" fill="white"></path>
<path d="M15.5429 31.0858C24.127 31.0858 31.0858 24.127 31.0858 15.5429C31.0858 6.9588 24.127 0 15.5429 0C6.9588 0 0 6.9588 0 15.5429C0 24.127 6.9588 31.0858 15.5429 31.0858Z" fill="white"></path>
<path d="M15.5427 11.5344C17.7563 11.5344 19.5511 13.3292 19.5511 15.5427C19.5511 17.7563 17.7563 19.5511 15.5427 19.5511C13.3292 19.5511 11.5344 17.7563 11.5344 15.5427C11.5344 13.3292 13.3292 11.5344 15.5427 11.5344ZM15.5427 8.18408C11.4745 8.18408 8.18408 11.4745 8.18408 15.5427C8.18408 19.6109 11.4745 22.9014 15.5427 22.9014C19.6109 22.9014 22.9014 19.6109 22.9014 15.5427C22.9014 11.4745 19.6109 8.18408 15.5427 8.18408Z" fill="white"></path>
<path d="M20.2212 9.85954C18.9529 8.8066 17.3256 8.1844 15.5428 8.1844C14.9325 8.1844 14.3343 8.25619 13.7719 8.39978L11.4267 6.19816C10.7566 5.564 10.7207 4.49909 11.3549 3.82903C11.9891 3.15898 13.054 3.12308 13.724 3.75724L20.2212 9.85954Z" fill="url(#paint0_linear_466_4191)"></path>
<path d="M27.0774 19.3717L17.7923 22.5544C17.6966 22.5784 17.6128 22.6143 17.5171 22.6262C20.0418 21.9203 22.028 19.8981 22.6741 17.3376L25.9885 16.2009C26.862 15.9017 27.8192 16.3684 28.1183 17.2418C28.4175 18.1153 27.9628 19.0725 27.0774 19.3717Z" fill="url(#paint1_linear_466_4191)"></path>
<path d="M20.2212 9.85922C18.9528 8.80628 17.3256 8.18408 15.5427 8.18408C14.9325 8.18408 14.3342 8.25587 13.7719 8.39946C10.5652 9.18917 8.18408 12.0848 8.18408 15.5427C8.18408 19.6109 11.4745 22.9014 15.5427 22.9014C16.2248 22.9014 16.8948 22.8057 17.517 22.6382C20.0417 21.9322 22.0279 19.9101 22.6741 17.3495C22.8176 16.7752 22.9014 16.1769 22.9014 15.5547C22.9014 13.2574 21.8604 11.2113 20.2212 9.85922ZM11.5344 15.5427C11.5344 13.3292 13.3292 11.5344 15.5427 11.5344C16.488 11.5344 17.3495 11.8574 18.0435 12.4078C18.1631 12.5036 18.2708 12.5993 18.3785 12.707C19.1084 13.4368 19.5631 14.4419 19.5631 15.5427C19.5631 17.7563 17.7683 19.5511 15.5547 19.5511C13.3292 19.5511 11.5344 17.7444 11.5344 15.5427Z" fill="#0000FF"></path>
<path d="M9.85922 26.2999C8.9379 26.2999 8.18408 25.5461 8.18408 24.6248V15.3875C8.18408 14.4662 8.9379 13.7124 9.85922 13.7124C10.7806 13.7124 11.5344 14.4662 11.5344 15.3875V24.6248C11.5344 25.5461 10.7925 26.2999 9.85922 26.2999Z" fill="#0000FF"></path>
<defs>
<linearGradient id="paint0_linear_466_4191" x1="14.4522" y1="2.56881" x2="16.0077" y2="9.50869" gradientUnits="userSpaceOnUse">
<stop stop-color="#0000FF"></stop>
<stop offset="0.1221" stop-color="#0404FF"></stop>
<stop offset="0.2472" stop-color="#1010FF"></stop>
<stop offset="0.3737" stop-color="#2525FF"></stop>
<stop offset="0.5012" stop-color="#4242FF"></stop>
<stop offset="0.6296" stop-color="#6767FF"></stop>
<stop offset="0.7587" stop-color="#9494FF"></stop>
<stop offset="0.8858" stop-color="#C9C9FF"></stop>
<stop offset="1" stop-color="white"></stop>
</linearGradient>
<linearGradient id="paint1_linear_466_4191" x1="28.6537" y1="20.2599" x2="19.8592" y2="19.0634" gradientUnits="userSpaceOnUse">
<stop stop-color="#0000FF"></stop>
<stop offset="0.1418" stop-color="#0404FF"></stop>
<stop offset="0.2695" stop-color="#0F0FFF"></stop>
<stop offset="0.3918" stop-color="#2121FF"></stop>
<stop offset="0.511" stop-color="#3B3BFF"></stop>
<stop offset="0.6277" stop-color="#5C5CFF"></stop>
<stop offset="0.7427" stop-color="#8585FF"></stop>
<stop offset="0.8562" stop-color="#B6B6FF"></stop>
<stop offset="0.9659" stop-color="#ECECFF"></stop>
<stop offset="1" stop-color="white"></stop>
</linearGradient>
</defs>
</svg>