<svg width="24" height="24" viewBox="0 0 24 24" fill="none" xmlns="http://www.w3.org/2000/svg">
<g clip-path="url(#clip0_2469_41581)">
<path d="M23.0406 14.34C23.4097 12.5897 23.3588 10.7632 22.8906 9.03614C22.3782 7.14657 21.3716 5.41205 19.9796 4.02005C18.5876 2.6281 16.8531 1.62146 14.9635 1.10916C13.2365 0.64088 11.4099 0.590114 9.65958 0.959161C8.51372 0.242208 7.15468 -0.0898075 5.79619 0.0209113C4.30786 0.142271 2.90597 0.791395 1.84866 1.84871C0.791349 2.90602 0.142271 4.30786 0.0209118 5.79619C-0.0899007 7.15472 0.242115 8.51363 0.959162 9.65958C0.590068 11.4098 0.640927 13.2366 1.10916 14.9635C1.62146 16.8531 2.62805 18.5877 4.02005 19.9796C5.41205 21.3716 7.14657 22.3782 9.0361 22.8905C10.7631 23.3588 12.5897 23.4096 14.34 23.0406C15.3415 23.6673 16.5057 24 17.6901 24C17.8609 24 18.0323 23.9931 18.2035 23.9791C19.692 23.8578 21.094 23.2087 22.1513 22.1513C23.2086 21.0939 23.8577 19.6919 23.9791 18.2035C24.0899 16.845 23.7577 15.4859 23.0406 14.34ZM21.1081 21.108C19.441 22.775 16.834 23.0023 14.9093 21.6482C14.7839 21.56 14.6355 21.5138 14.4848 21.5138C14.4271 21.5138 14.3689 21.5206 14.3118 21.5345C10.9573 22.3442 7.49996 21.3729 5.06335 18.9363C2.62674 16.4997 1.65554 13.0424 2.4653 9.68785C2.51508 9.4816 2.4736 9.26386 2.35158 9.09029C0.997787 7.16564 1.22504 4.55883 2.89196 2.89196C4.55883 1.22508 7.1656 0.997692 9.09029 2.35158C9.26386 2.4736 9.48151 2.51513 9.6878 2.4653C13.0424 1.65558 16.4996 2.62679 18.9363 5.06344C21.3729 7.5 22.3441 10.9574 21.5344 14.3118C21.4846 14.518 21.5261 14.7358 21.6481 14.9094C23.0022 16.8341 22.7751 19.441 21.1081 21.108Z" fill="#0000FF"></path>
<path d="M12.1379 11.1929C10.6143 10.6776 8.88755 10.0934 8.88755 9.22959C8.88755 8.12774 10.3128 7.1969 11.9999 7.1969C13.687 7.1969 15.1123 8.12779 15.1123 9.22959C15.1123 9.63698 15.4425 9.96731 15.85 9.96731C16.2574 9.96731 16.5877 9.63703 16.5877 9.22959C16.5877 8.24582 16.0783 7.33753 15.1532 6.67185C14.3015 6.05901 13.1817 5.72156 11.9999 5.72156C10.8181 5.72156 9.6983 6.05906 8.84662 6.67185C7.92155 7.33748 7.41211 8.24582 7.41211 9.22959C7.41211 10.1266 7.92722 10.8836 8.94305 11.4794C9.70973 11.9291 10.7038 12.2653 11.6651 12.5905C13.3598 13.1638 15.1123 13.7566 15.1123 14.7703C15.1123 15.8722 13.687 16.803 11.9999 16.803C10.3128 16.803 8.88755 15.8721 8.88755 14.7703C8.88755 14.3629 8.55727 14.0326 8.14983 14.0326C7.74239 14.0326 7.41211 14.3629 7.41211 14.7703C7.41211 15.7541 7.9215 16.6624 8.84662 17.328C9.6983 17.9409 10.8181 18.2783 11.9999 18.2783C13.1817 18.2783 14.3015 17.9408 15.1532 17.328C16.0783 16.6624 16.5877 15.7541 16.5877 14.7703C16.5878 12.6982 14.2237 11.8985 12.1379 11.1929Z" fill="#0000FF"></path>
</g>
<defs>
<clipPath id="clip0_2469_41581">
<rect width="24" height="24" fill="white"></rect>
</clipPath>
</defs>
</svg>